<?xml version="1.0" encoding="utf-8"?>
<!-- Generator: Adobe Illustrator 23.0.4, SVG Export Plug-In . SVG Version: 6.00 Build 0)  -->
<svg version="1.1" id="Layer_1" xmlns="http://www.w3.org/2000/svg" xmlns:xlink="http://www.w3.org/1999/xlink" x="0px" y="0px"
	 viewBox="0 0 1080 1080" style="enable-background:new 0 0 1080 1080;" xml:space="preserve">
<style type="text/css">
	.st0{fill:#FEFEFE;}
	.st1{fill:#399F4F;}
	.st2{fill:#5AAA4E;}
	.st3{fill:#069550;}
	.st4{fill:#DCC6E4;}
	.st5{fill:#C390C5;}
	.st6{fill:#EDEDED;}
	.st7{fill:#FDCC3B;}
	.st8{fill:#BCD9E7;}
	.st9{fill:#F49B63;}
	.st10{fill:#E8B638;}
	.st11{fill:#011423;}
	.st12{fill:#CC9D33;}
	.st13{fill:#FFFFFF;}
	.st14{fill:#05ADC9;}
	.st15{fill:#01BEF2;}
	.st16{opacity:0.6;fill:#A9D2EF;enable-background:new    ;}
	.st17{fill:#FFCCC9;}
</style>
<g>
	<g>
	</g>
	<path class="st0" d="M856.2,548.3c0,1.2,0.9,1.9,1.9,1.9c0.8,0,1.5-0.4,1.7-1.3h-0.6c-0.2,0.5-0.6,0.8-1.1,0.8
		c-0.8,0-1.3-0.6-1.3-1.4c0-0.8,0.5-1.4,1.3-1.4c0.5,0,0.9,0.2,1.1,0.7h0.6c-0.2-0.9-1-1.3-1.7-1.3
		C857,546.4,856.2,547.1,856.2,548.3"/>
	<polygon class="st0" points="862.3,548.3 860.7,546.4 860.5,546.4 860.5,550.2 861.1,550.2 861.1,547.8 862.2,549.2 862.3,549.2 
		863.4,547.8 863.4,550.2 864,550.2 864,546.4 863.8,546.4 	"/>
	<polygon class="st0" points="866.2,548.1 865.7,547.2 865.2,546.4 864.6,546.4 864.6,546.5 865.9,548.6 865.9,550.2 866.5,550.2 
		866.5,548.6 867.9,546.5 867.9,546.4 867.2,546.4 866.7,547.2 866.2,548.1 	"/>
	<path class="st0" d="M869,546.4h-0.6v3.8h0.6v-1.6c0.2,0,0.5,0,0.7-0.1l1.1,1.7h0.7v-0.1l-1.2-1.8c0.3-0.2,0.4-0.6,0.5-1
		c0.1-0.4,0.2-0.5,0.6-0.4v-0.4c-0.8-0.1-1.1,0.2-1.2,0.7c-0.1,0.4-0.2,0.8-0.4,0.9c-0.2,0.1-0.5,0.1-0.7,0.1L869,546.4L869,546.4z"
		/>
	<polygon class="st0" points="858.7,552.9 856.1,552.9 856.1,553.5 857.9,553.5 856.4,556.7 857,556.7 858.7,553 	"/>
	<path class="st0" d="M859.7,553.4h1.7v-0.5h-2.2v1.9c0.3-0.1,0.6-0.1,1-0.1c0.5,0,0.9,0.2,0.9,0.8c0,0.5-0.4,0.7-0.7,0.7
		c-0.4,0-0.6-0.2-0.7-0.6h-0.6c0.1,0.7,0.6,1.1,1.2,1.1c0.9,0,1.3-0.6,1.3-1.3c0-0.9-0.6-1.2-1.4-1.3c-0.2,0-0.3,0-0.5,0.1
		L859.7,553.4L859.7,553.4z"/>
	<path class="st0" d="M862.6,556.8c0.2,0,0.4-0.1,0.4-0.3c0-0.2-0.2-0.3-0.4-0.3s-0.4,0.1-0.4,0.3
		C862.2,556.6,862.4,556.8,862.6,556.8"/>
	<path class="st0" d="M865,556.2c-0.4,0-0.7-0.2-0.8-0.6c0-0.1,0-0.2,0-0.4v-1c0-0.1,0-0.2,0-0.4c0.1-0.4,0.4-0.6,0.8-0.6
		s0.7,0.2,0.8,0.6c0,0.1,0,0.2,0,0.4v1c0,0.1,0,0.2,0,0.4C865.7,556,865.4,556.2,865,556.2 M865,552.8c-0.8,0-1.4,0.5-1.4,1.3v1.3
		c0,0.8,0.6,1.3,1.4,1.3c0.8,0,1.4-0.5,1.4-1.3v-1.3C866.4,553.3,865.8,552.8,865,552.8z"/>
	<path class="st0" d="M867.5,556.8c0.2,0,0.4-0.1,0.4-0.3c0-0.2-0.2-0.3-0.4-0.3c-0.2,0-0.4,0.1-0.4,0.3
		C867.1,556.6,867.3,556.8,867.5,556.8"/>
	<path class="st0" d="M869.9,556.2c-0.4,0-0.7-0.2-0.8-0.6c0-0.1,0-0.2,0-0.4v-1c0-0.1,0-0.2,0-0.4c0.1-0.4,0.4-0.6,0.8-0.6
		s0.7,0.2,0.8,0.6c0,0.1,0,0.2,0,0.4v1c0,0.1,0,0.2,0,0.4C870.6,556,870.3,556.2,869.9,556.2 M869.9,552.8c-0.8,0-1.4,0.5-1.4,1.3
		v1.3c0,0.8,0.6,1.3,1.4,1.3c0.8,0,1.4-0.5,1.4-1.3v-1.3C871.3,553.3,870.7,552.8,869.9,552.8z"/>
	<path class="st0" d="M872.3,556.8c0.2,0,0.4-0.1,0.4-0.3c0-0.2-0.2-0.3-0.4-0.3c-0.2,0-0.4,0.1-0.4,0.3
		C872,556.6,872.1,556.8,872.3,556.8"/>
	<path class="st0" d="M874.7,556.2c-0.4,0-0.7-0.2-0.8-0.6c0-0.1,0-0.2,0-0.4v-1c0-0.1,0-0.2,0-0.4c0.1-0.4,0.4-0.6,0.8-0.6
		s0.7,0.2,0.8,0.6c0,0.1,0,0.2,0,0.4v1c0,0.1,0,0.2,0,0.4C875.4,556,875.1,556.2,874.7,556.2 M874.7,552.8c-0.8,0-1.4,0.5-1.4,1.3
		v1.3c0,0.8,0.6,1.3,1.4,1.3c0.8,0,1.4-0.5,1.4-1.3v-1.3C876.1,553.3,875.5,552.8,874.7,552.8z"/>
	<path class="st0" d="M857,567.9v-1.4h0.9c0.4,0,0.7,0.3,0.7,0.7c0,0.4-0.3,0.7-0.7,0.7H857z M858.5,568.3c0.5-0.2,0.8-0.6,0.8-1.1
		c0-0.7-0.5-1.2-1.3-1.2h-1.6v3.8h0.6v-1.3h0.8l0.9,1.3h0.6v-0.1L858.5,568.3z"/>
	<path class="st0" d="M859.8,567.8c0,1.2,0.9,1.9,1.9,1.9c0.7,0,1.4-0.3,1.7-1.1c0.1-0.3,0.2-0.7,0.1-1h-1.8v0.5h1.2
		c-0.1,0.7-0.6,1-1.2,1c-0.8,0-1.3-0.6-1.3-1.4c0-0.8,0.5-1.4,1.3-1.4c0.5,0,0.9,0.2,1.1,0.6h0.6c-0.2-0.8-0.9-1.2-1.7-1.2
		C860.7,565.9,859.8,566.6,859.8,567.8"/>
	<path class="st0" d="M865.8,568c0.2,0,0.3,0,0.5,0.1c0.1,0.1,0.2,0.3,0.2,0.4c0,0.4-0.3,0.6-0.6,0.6h-1V568H865.8z M865.8,566.5
		c0.4,0,0.6,0.2,0.6,0.5c0,0.4-0.3,0.5-0.6,0.5h-0.9v-1H865.8z M867,567c0-0.7-0.5-1.1-1.2-1.1h-1.5v3.8h1.7c0.7,0,1.2-0.4,1.2-1.1
		c0-0.4-0.2-0.7-0.6-0.9C866.8,567.6,867,567.3,867,567z"/>
	<path class="st0" d="M857.7,575.7c-0.4,0-0.7-0.2-0.8-0.6c0-0.1,0-0.2,0-0.4v-1c0-0.1,0-0.2,0-0.4c0.1-0.4,0.4-0.6,0.8-0.6
		s0.7,0.2,0.8,0.6c0,0.1,0,0.2,0,0.4v1c0,0.1,0,0.2,0,0.4C858.4,575.5,858.1,575.7,857.7,575.7 M857.7,572.4c-0.8,0-1.4,0.5-1.4,1.3
		v1.3c0,0.8,0.6,1.3,1.4,1.3c0.8,0,1.4-0.5,1.4-1.3v-1.3C859.1,572.9,858.5,572.4,857.7,572.4z"/>
	<path class="st0" d="M860.1,576.3c0.2,0,0.4-0.1,0.4-0.3c0-0.2-0.2-0.3-0.4-0.3s-0.4,0.1-0.4,0.3
		C859.7,576.1,859.9,576.3,860.1,576.3"/>
	<polygon class="st0" points="861.8,572.9 861.8,575.7 861.1,575.7 861.1,576.2 863.1,576.2 863.1,575.7 862.4,575.7 862.4,572.4 
		861.2,572.4 861.2,572.9 	"/>
	<path class="st0" d="M864.7,572.9c0.5,0,0.8,0.3,0.8,0.7c0,0.5-0.3,0.7-0.8,0.7s-0.8-0.3-0.8-0.7
		C863.9,573.1,864.3,572.9,864.7,572.9 M864.7,576.2l1.1-1.8c0.2-0.3,0.3-0.5,0.3-0.8c0-0.8-0.6-1.3-1.4-1.3c-0.8,0-1.4,0.4-1.4,1.3
		c0,0.8,0.6,1.2,1.3,1.2c0.1,0,0.3,0,0.4-0.1l-1,1.5H864.7z"/>
	<path class="st0" d="M868.1,575.7c-0.4,0-0.7-0.2-0.8-0.6c0-0.1,0-0.2,0-0.4v-1c0-0.1,0-0.2,0-0.4c0.1-0.4,0.4-0.6,0.8-0.6
		c0.4,0,0.7,0.2,0.8,0.6c0,0.1,0,0.2,0,0.4v1c0,0.1,0,0.2,0,0.4C868.8,575.5,868.5,575.7,868.1,575.7 M868.1,572.4
		c-0.8,0-1.4,0.5-1.4,1.3v1.3c0,0.8,0.6,1.3,1.4,1.3c0.8,0,1.4-0.5,1.4-1.3v-1.3C869.5,572.9,868.9,572.4,868.1,572.4z"/>
	<path class="st0" d="M870.6,576.3c0.2,0,0.4-0.1,0.4-0.3c0-0.2-0.2-0.3-0.4-0.3s-0.4,0.1-0.4,0.3
		C870.2,576.1,870.4,576.3,870.6,576.3"/>
	<path class="st0" d="M872.7,572.9c0.7,0,0.7,0.8,0.3,1.3l-1.5,1.9v0.1h2.4v-0.5h-1.5c0.6-0.7,0.8-1.1,1-1.3c0.7-0.9,0.4-2-0.7-2
		c-0.7,0-1.1,0.4-1.1,1.1h0.5C872.1,573.1,872.3,572.9,872.7,572.9"/>
	<path class="st0" d="M876.2,573.2l0,0.9v0.8H875L876.2,573.2L876.2,573.2z M876.7,575.4h0.4v-0.5h-0.4v-2.5h-0.6l-1.8,2.7v0.3h1.9
		v0.8h0.6V575.4z"/>
	<path class="st0" d="M878.8,572.9c0.7,0,0.7,0.8,0.3,1.3l-1.5,1.9v0.1h2.4v-0.5h-1.5c0.6-0.7,0.8-1.1,1-1.3c0.7-0.9,0.4-2-0.7-2
		c-0.7,0-1.1,0.4-1.1,1.1h0.5C878.2,573.1,878.4,572.9,878.8,572.9"/>
	<path class="st0" d="M856.1,470c0,1.2,0.9,1.9,1.9,1.9c0.8,0,1.5-0.4,1.7-1.3h-0.6c-0.2,0.5-0.6,0.8-1.1,0.8
		c-0.8,0-1.3-0.6-1.3-1.4c0-0.8,0.5-1.4,1.3-1.4c0.5,0,0.9,0.2,1.1,0.7h0.6c-0.2-0.9-1-1.3-1.7-1.3C857,468,856.1,468.7,856.1,470"
		/>
	<polygon class="st0" points="862.2,470 860.7,468.1 860.4,468.1 860.4,471.9 861.1,471.9 861.1,469.5 862.2,470.9 862.2,470.9 
		863.3,469.5 863.3,471.9 864,471.9 864,468.1 863.7,468.1 	"/>
	<polygon class="st0" points="866.1,469.8 865.7,468.9 865.2,468.1 864.5,468.1 864.5,468.2 865.8,470.3 865.8,471.9 866.5,471.9 
		866.5,470.3 867.8,468.2 867.8,468.1 867.1,468.1 866.6,468.9 866.2,469.8 	"/>
	<path class="st0" d="M869,468.1h-0.6v3.8h0.6v-1.6c0.2,0,0.5,0,0.7-0.1l1.1,1.7h0.7v-0.1l-1.2-1.8c0.3-0.2,0.4-0.6,0.5-1
		c0.1-0.4,0.2-0.5,0.6-0.4v-0.4c-0.8-0.1-1.1,0.2-1.2,0.7c-0.1,0.4-0.2,0.8-0.4,0.9c-0.2,0.1-0.5,0.1-0.7,0.1L869,468.1L869,468.1z"
		/>
	<path class="st0" d="M856.8,475.1h1.7v-0.5h-2.2v1.9c0.3-0.1,0.6-0.1,1-0.1c0.5,0,0.9,0.2,0.9,0.8c0,0.5-0.4,0.7-0.7,0.7
		c-0.4,0-0.6-0.2-0.7-0.6h-0.6c0.1,0.7,0.6,1.1,1.2,1.1c0.9,0,1.3-0.6,1.3-1.3c0-0.9-0.6-1.2-1.4-1.3c-0.2,0-0.3,0-0.5,0.1
		L856.8,475.1L856.8,475.1z"/>
	<path class="st0" d="M860.8,477.9c-0.4,0-0.7-0.2-0.8-0.6c0-0.1,0-0.2,0-0.4v-1c0-0.1,0-0.2,0-0.4c0.1-0.4,0.4-0.6,0.8-0.6
		s0.7,0.2,0.8,0.6c0,0.1,0,0.2,0,0.4v1c0,0.1,0,0.2,0,0.4C861.5,477.7,861.2,477.9,860.8,477.9 M860.8,474.5c-0.8,0-1.4,0.5-1.4,1.3
		v1.3c0,0.8,0.6,1.3,1.4,1.3c0.8,0,1.4-0.5,1.4-1.3v-1.3C862.2,475,861.5,474.5,860.8,474.5z"/>
	<path class="st0" d="M863.2,478.4c0.2,0,0.4-0.1,0.4-0.3c0-0.2-0.2-0.3-0.4-0.3s-0.4,0.1-0.4,0.3
		C862.8,478.3,863,478.4,863.2,478.4"/>
	<path class="st0" d="M865.6,477.9c-0.4,0-0.7-0.2-0.8-0.6c0-0.1,0-0.2,0-0.4v-1c0-0.1,0-0.2,0-0.4c0.1-0.4,0.4-0.6,0.8-0.6
		c0.4,0,0.7,0.2,0.8,0.6c0,0.1,0,0.2,0,0.4v1c0,0.1,0,0.2,0,0.4C866.3,477.7,866,477.9,865.6,477.9 M865.6,474.5
		c-0.8,0-1.4,0.5-1.4,1.3v1.3c0,0.8,0.6,1.3,1.4,1.3c0.8,0,1.4-0.5,1.4-1.3v-1.3C867,475,866.4,474.5,865.6,474.5z"/>
	<path class="st0" d="M868,478.4c0.2,0,0.4-0.1,0.4-0.3c0-0.2-0.2-0.3-0.4-0.3c-0.2,0-0.4,0.1-0.4,0.3
		C867.7,478.3,867.8,478.4,868,478.4"/>
	<polygon class="st0" points="869.7,475.1 869.7,477.9 869,477.9 869,478.4 871,478.4 871,477.9 870.3,477.9 870.3,474.6 
		869.1,474.6 869.1,475.1 	"/>
	<path class="st0" d="M872.9,477.9c-0.4,0-0.7-0.2-0.8-0.6c0-0.1,0-0.2,0-0.4v-1c0-0.1,0-0.2,0-0.4c0.1-0.4,0.4-0.6,0.8-0.6
		s0.7,0.2,0.8,0.6c0,0.1,0,0.2,0,0.4v1c0,0.1,0,0.2,0,0.4C873.6,477.7,873.3,477.9,872.9,477.9 M872.9,474.5c-0.8,0-1.4,0.5-1.4,1.3
		v1.3c0,0.8,0.6,1.3,1.4,1.3c0.8,0,1.4-0.5,1.4-1.3v-1.3C874.3,475,873.7,474.5,872.9,474.5z"/>
	<path class="st0" d="M876.5,477.9c-0.4,0-0.7-0.2-0.8-0.6c0-0.1,0-0.2,0-0.4v-1c0-0.1,0-0.2,0-0.4c0.1-0.4,0.4-0.6,0.8-0.6
		s0.7,0.2,0.8,0.6c0,0.1,0,0.2,0,0.4v1c0,0.1,0,0.2,0,0.4C877.2,477.7,876.9,477.9,876.5,477.9 M876.5,474.5c-0.8,0-1.4,0.5-1.4,1.3
		v1.3c0,0.8,0.6,1.3,1.4,1.3c0.8,0,1.4-0.5,1.4-1.3v-1.3C877.9,475,877.3,474.5,876.5,474.5z"/>
	<path class="st0" d="M878.9,478.4c0.2,0,0.4-0.1,0.4-0.3c0-0.2-0.2-0.3-0.4-0.3c-0.2,0-0.4,0.1-0.4,0.3
		C878.5,478.3,878.7,478.4,878.9,478.4"/>
	<path class="st0" d="M881.3,477.9c-0.4,0-0.7-0.2-0.8-0.6c0-0.1,0-0.2,0-0.4v-1c0-0.1,0-0.2,0-0.4c0.1-0.4,0.4-0.6,0.8-0.6
		s0.7,0.2,0.8,0.6c0,0.1,0,0.2,0,0.4v1c0,0.1,0,0.2,0,0.4C882,477.7,881.7,477.9,881.3,477.9 M881.3,474.5c-0.8,0-1.4,0.5-1.4,1.3
		v1.3c0,0.8,0.6,1.3,1.4,1.3c0.8,0,1.4-0.5,1.4-1.3v-1.3C882.7,475,882.1,474.5,881.3,474.5z"/>
	<path class="st0" d="M856.9,489.5v-1.4h0.9c0.4,0,0.7,0.3,0.7,0.7c0,0.4-0.3,0.7-0.7,0.7H856.9z M858.4,490
		c0.5-0.2,0.8-0.6,0.8-1.1c0-0.7-0.5-1.2-1.3-1.2h-1.6v3.8h0.6v-1.3h0.8l0.9,1.3h0.6v-0.1L858.4,490z"/>
	<path class="st0" d="M859.8,489.5c0,1.2,0.9,1.9,1.9,1.9c0.7,0,1.4-0.3,1.7-1.1c0.1-0.3,0.2-0.7,0.1-1h-1.8v0.5h1.2
		c-0.1,0.7-0.6,1-1.2,1c-0.8,0-1.3-0.6-1.3-1.4c0-0.8,0.5-1.4,1.3-1.4c0.5,0,0.9,0.2,1.1,0.6h0.6c-0.2-0.8-0.9-1.2-1.7-1.2
		C860.7,487.5,859.8,488.3,859.8,489.5"/>
	<path class="st0" d="M865.8,489.7c0.2,0,0.3,0,0.5,0.1c0.1,0.1,0.2,0.3,0.2,0.4c0,0.4-0.3,0.6-0.6,0.6h-1v-1.1L865.8,489.7
		L865.8,489.7z M865.7,488.1c0.4,0,0.6,0.2,0.6,0.5c0,0.4-0.3,0.5-0.6,0.5h-0.9v-1H865.7z M866.9,488.7c0-0.7-0.5-1.1-1.2-1.1h-1.5
		v3.8h1.7c0.7,0,1.2-0.4,1.2-1.1c0-0.4-0.2-0.7-0.6-0.9C866.8,489.2,866.9,489,866.9,488.7z"/>
	<polygon class="st0" points="856.8,494.6 856.8,497.4 856.1,497.4 856.1,497.9 858.1,497.9 858.1,497.4 857.4,497.4 857.4,494.1 
		856.2,494.1 856.2,494.6 	"/>
	<path class="st0" d="M860.3,494.8l0,0.9v0.8h-1.2L860.3,494.8L860.3,494.8L860.3,494.8z M860.8,497.1h0.4v-0.5h-0.4v-2.5h-0.6
		l-1.8,2.7v0.3h1.9v0.8h0.6V497.1z"/>
	<path class="st0" d="M861.7,496.8c0,0.7,0.6,1.1,1.3,1.1c0.8,0,1.3-0.6,1.3-1.3c0-0.6-0.4-1.1-1-1.1l1-1.4v-0.1h-2.4v0.5h1.5
		l-0.9,1.3v0.1c0.5-0.1,1.2,0.1,1.2,0.7c0,0.4-0.3,0.7-0.7,0.7c-0.4,0-0.7-0.2-0.7-0.6L861.7,496.8L861.7,496.8z"/>
	<path class="st0" d="M865.3,497.9c0.2,0,0.4-0.1,0.4-0.3c0-0.2-0.2-0.3-0.4-0.3c-0.2,0-0.4,0.1-0.4,0.3
		C864.9,497.8,865.1,497.9,865.3,497.9"/>
	<polygon class="st0" points="866.9,494.6 866.9,497.4 866.2,497.4 866.2,497.9 868.3,497.9 868.3,497.4 867.5,497.4 867.5,494.1 
		866.3,494.1 866.3,494.6 	"/>
	<path class="st0" d="M869.9,494.5c0.5,0,0.8,0.3,0.8,0.7c0,0.5-0.3,0.7-0.8,0.7s-0.8-0.3-0.8-0.7
		C869.1,494.8,869.5,494.5,869.9,494.5 M869.9,497.9l1.1-1.8c0.2-0.3,0.3-0.5,0.3-0.8c0-0.8-0.6-1.3-1.4-1.3c-0.8,0-1.4,0.4-1.4,1.3
		c0,0.8,0.6,1.2,1.3,1.2c0.1,0,0.3,0,0.4-0.1l-1,1.5H869.9z"/>
	<path class="st0" d="M873.1,494.5c0.5,0,0.8,0.3,0.8,0.7c0,0.5-0.3,0.7-0.8,0.7s-0.8-0.3-0.8-0.7
		C872.3,494.8,872.7,494.5,873.1,494.5 M873.1,497.9l1.1-1.8c0.2-0.3,0.3-0.5,0.3-0.8c0-0.8-0.6-1.3-1.4-1.3c-0.8,0-1.4,0.4-1.4,1.3
		c0,0.8,0.6,1.2,1.3,1.2c0.1,0,0.3,0,0.4-0.1l-1,1.5H873.1z"/>
	<path class="st0" d="M875.2,497.9c0.2,0,0.4-0.1,0.4-0.3c0-0.2-0.2-0.3-0.4-0.3c-0.2,0-0.4,0.1-0.4,0.3
		C874.8,497.8,875,497.9,875.2,497.9"/>
	<polygon class="st0" points="878.7,494.1 876.1,494.1 876.1,494.7 877.8,494.7 876.4,497.9 877,497.9 878.7,494.2 	"/>
	<path class="st0" d="M880.6,494.8l0,0.9v0.8h-1.2L880.6,494.8L880.6,494.8L880.6,494.8z M881.1,497.1h0.4v-0.5h-0.4v-2.5h-0.6
		l-1.8,2.7v0.3h1.9v0.8h0.6V497.1z"/>
</g>
<g id="Layer_6">
	<g>
		<path class="st1" d="M667.9,417.4c-4.6,18.4-10.8,36-18.2,52.1c0,0,0,0.1-0.1,0.1c-1.7,3.8-3.5,7.5-5.4,11.1
			c-22.1,43.2-52.5,73.2-81.9,72.7c-62.1-0.9-61.9-42.6-64.1-72.7c-0.3-4-0.6-7.7-1.1-11.1c0,0,0-0.1,0-0.1
			c-0.1-0.7-0.2-1.4-0.3-2.1c-3.5-18.9-19.4-26-30-28.6c-11.5-2.8-21.3-10.2-27.2-20.4c-0.4-0.8-0.9-1.5-1.2-2.3
			c-4.9-9.7-5.9-21-2.9-31.5c11.8-40.9-7.5-52.7-39.8-74.2c-15.8-10.5-19.5-25.4-19.1-37.8c0.3-12.9,5.3-25.2,13.9-34.8
			c25.1-27.8,56.9-28.8,81-23.7c14.9,3.2,29.3,9.3,42,17.8c12.8,8.6,27.1,11.3,73.7,1c53.8-11.8,73.1,30.1,73.1,30.1
			C681.5,308.6,680.9,365.8,667.9,417.4z"/>
		<path class="st2" d="M632,257.9v125c0,2-1.6,3.6-3.5,3.6H454.2c-0.8,0-1.5-0.2-2-0.7c0,0,0,0-0.1,0c-0.9-0.7-1.4-1.7-1.4-2.8v-125
			c0-2,1.6-3.6,3.5-3.6h174.3C630.4,254.4,632,256,632,257.9z"/>
		<path class="st3" d="M540.5,271.4c0,25.4-20.6,46-46,46c-20.4,0-37.7-13.3-43.7-31.6v-27.9c0-2,1.6-3.6,3.5-3.6h83
			C539.3,259.6,540.5,265.4,540.5,271.4z"/>
		<g>
			<path class="st3" d="M472.7,361.7h-3.3v-3.3h3.3V361.7z M472.7,355.8h-3.3v-3.3h3.3V355.8z M472.7,350h-3.3v-3.3h3.3V350z
				 M472.7,344.1h-3.3v-3.3h3.3V344.1z M479,361.7h-3.3v-3.3h3.3V361.7z M479,355.8h-3.3v-3.3h3.3V355.8z M479,350h-3.3v-3.3h3.3
				V350z M479,344.1h-3.3v-3.3h3.3V344.1z M496.3,369.6h-8.9v-1.5h8.9V369.6z M576.5,339.6c-19.6,3.2-46,12.5-57.4,28.6
				c-4.9,6.9-12.4,11.1-20.4,11.9v-17.9h-13.9v15.9c-1.1-0.3-2.2-0.6-3.2-0.8v-39.8h-14.8v41.2c-3.9,1.8-7,4.6-9.5,7.8h171.1
				c1.9,0,3.5-1.6,3.5-3.6v-61.2C602.4,319.1,584.6,331.6,576.5,339.6z M496.3,366.2h-8.9v-1.5h8.9L496.3,366.2L496.3,366.2z"/>
			<polygon class="st3" points="484.8,358.8 490.6,358.8 490.6,324.8 487.1,324.8 484.8,324.8 476.3,324.8 476.3,334.7 484.8,334.7 
							"/>
		</g>
		<path class="st4" d="M661.1,398.5h-63c-3.3,0-6.1,2.3-6.7,5.4c-0.7-3.1-3.4-5.4-6.7-5.4h-63c-3.3,0-6.1,2.3-6.7,5.4
			c-0.7-3.1-3.4-5.4-6.7-5.4h-63c-3.8,0-6.9,3.1-6.9,6.9v10.8c0.4,0.8,0.8,1.5,1.2,2.3c5.9,10.2,15.7,17.6,27.2,20.4
			c10.6,2.6,26.5,9.7,30,28.6c0.1,0.7,0.2,1.4,0.3,2.1h152.6c7.3-16.1,13.5-33.8,18.2-52.1v-12C667.9,401.6,664.9,398.5,661.1,398.5
			z M496.1,419.4h-38.7c-2.7,0-4.8-2.2-4.8-4.8c0-2.7,2.2-4.8,4.8-4.8h38.7c2.7,0,4.8,2.2,4.8,4.8
			C500.9,417.2,498.8,419.4,496.1,419.4z M572.5,419.4h-38.7c-2.7,0-4.8-2.2-4.8-4.8c0-2.7,2.2-4.8,4.8-4.8h38.7
			c2.7,0,4.8,2.2,4.8,4.8C577.4,417.2,575.2,419.4,572.5,419.4z M648.9,419.4h-38.7c-2.7,0-4.8-2.2-4.8-4.8c0-2.7,2.2-4.8,4.8-4.8
			h38.7c2.7,0,4.8,2.2,4.8,4.8C653.8,417.2,651.6,419.4,648.9,419.4z"/>
		<path class="st5" d="M649.7,469.7c-1.7,3.8-3.5,7.5-5.4,11.1h-146c-0.3-4-0.6-7.7-1.1-11.1H649.7z"/>
		<ellipse class="st6" cx="579.2" cy="582.9" rx="84.5" ry="3.2"/>
		<path class="st7" d="M610.5,328c-5.1-7.7-15-5.1-20.9,0.1c-3.4,3-5,7.1-7.9,10.5c-2.9,3.4-6.9,5.5-10.3,8.4
			c-3.1,2.6-6.5,5.4-9.1,8c0,0-10.3,10.7-10.3,10.7l-6.7-3.2l-6.4,10.2l8.8,6.4c3.4,2.4,7.9,2.5,11.3,0.2l49.1-32.6
			C614.4,342.7,614.2,333.7,610.5,328z"/>
		<path class="st8" d="M584.3,362.7l-6.2-20.7c-0.7,0.5-1.3,1-2,1.5c-1.1,5.3-2.4,14.1-1.5,20.8l-11.5,12.5L584.3,362.7z"/>
		<path class="st9" d="M598.6,538.1l18.8,24.7c1.6,2.2,2.2,5,1.3,7.6c-0.8,2.7-2.4,4.9-2.4,4.9l1.2,4.5l3.8-2.9c0,0,16.6-9.6,6.4-17
			c-3-2.2-4.7-3.5-5.6-4.3L608.1,537L598.6,538.1z"/>
		<path class="st10" d="M620.4,549.4l-9.7,8.6l-59.1-72c-1.4-1.7-1.8-3.9-1.1-5.9l28.6-82.6l32,15.7L587.9,451l-17.1,27.8l24.1,34.3
			L620.4,549.4z"/>
		<path class="st11" d="M627.9,559.9l-9,16.3l-2.4-0.9l-2.5,5.1c-0.6,0.2-1.2,0.2-1.8,0.1c-2.6-0.5-4.4-0.1-5.6,0.6
			c-0.7,0.4-1,1.2-0.8,1.9c0.2,0.8,0.9,1.3,1.7,1.3h3.3h6.5l9.3-7.1l12.3-9.3C634.7,562.1,627.9,559.9,627.9,559.9z"/>
		<polygon class="st12" points="594.9,513.2 568.6,481.5 560.3,482.4 568.3,478.5 571.2,461.5 579.7,405.9 587.9,451 570.8,478.9 		
			"/>
		<g>
			<path class="st9" d="M583.5,536.2l0,31c0,2.7-1.3,5.3-3.5,6.9c-2.3,1.7-4.9,2.5-4.9,2.5l-1.8,4.3h4.8c0,0,19,2.4,15.4-9.6
				c-1.1-3.5-1.6-5.6-1.9-6.8v-23.3L583.5,536.2z"/>
			<path class="st11" d="M593.7,571.3c0,0,4.1,5.9,3.8,13h-36.3c-0.8,0-1.5-0.5-1.7-1.3c-0.2-0.8,0.1-1.6,0.8-1.9
				c1.2-0.7,3-1,5.6-0.6c0.8,0.2,1.6,0,2.4-0.3l6.9-3.5l1.4,2.2L593.7,571.3z"/>
		</g>
		<path class="st10" d="M615.4,399.9c0,0,1.6,15.8-5,23.4c-1,1.2-1.7,2.6-1.9,4.2c-2.6,19.3-6.7,31.3-13.8,55.2
			c2.8,9.7,0.4,51.1,0.4,78.4l-13.8,0l-6-70.1c-0.2-2.3-0.2-4.7-0.1-7l4.2-86.5l23.6-7.9L615.4,399.9z"/>
		<polygon class="st9" points="590.9,288.6 599.7,318.5 585.5,327.1 578.3,302.8 575.3,290.8 		"/>
		<g>
			
				<ellipse transform="matrix(0.9833 -0.1818 0.1818 0.9833 -45.6998 108.3861)" class="st13" cx="568.3" cy="303.5" rx="1.7" ry="5"/>
			<path class="st9" d="M574.7,320l-1.3-3c-0.5-2-1-3.9-1.6-5.5l-0.9-0.7l-0.7-2.2c-1.2,0.4-3.1,0.5-2.3-1.7
				c0.5-1.4,0.2-3.7,0.1-4.6c-0.3-0.6-0.6-1.1-0.9-1.7c-0.9-1.7-1-3.4-0.7-4.7c0-0.1,0-0.2,0.1-0.3c0.2-0.9,0.5-1.6,0.8-2.1
				c0,0,0-0.1,0-0.1c0.4-0.6,0.7-1,0.7-1l5.7-1.1l12.2-2.2l0.9,2.9l1.5,4.7l1.3,4l-5.9,1.5l-0.3,0.1l0.2,0.4l2.1,3.7l-0.6,1.9
				l-2.1,7.1l-0.6,0.3l-0.6,0.3l-3.9,3.8c-1.4,1.5-2.4,1-2.8,0.6C574.8,320.1,574.7,320,574.7,320z"/>
			<path class="st11" d="M574.5,293.2c-0.3-1-1.3-1.7-2.4-1.5c-3,0.6-8,1.1-9.4-2c0,0-3.2-4.9,3-5.6c0,0,3,0.4,4.7-3.3
				s5.5-5.4,8.5-4.7c2.5,0.5,3.5,1.6,3.8,2c0.2,0.3,0.5,0.6,0.8,0.8c0.7,0.5,1.7,0.9,2.8,0.2c1.7-1,6.7-1.1,8.8,4.6
				c0.4,1.1,0.5,2.2,0.4,3.4l0,0.3c-0.2,1.4-0.5,2.7-1,4c-0.3,0.7-0.4,1.9,0.8,3.5c3.5,4.7,0,9.2,0,9.2l-2.2-0.5
				c-2.3-0.6-3.7-2.7-3.5-5c0.1-1.2-0.3-2.5-2-3.2c-0.7-0.3-1.5-0.3-2.2,0.1c-0.6,0.3-1.2,0.8-1.3,1.8c-0.1,0.8-0.3,1.6-0.5,2.4
				l-1.8,4.9l-2.5-5c-0.6-1.3-1.5-2.3-2.6-3.2C575.9,295.7,575,294.7,574.5,293.2z"/>
			
				<ellipse transform="matrix(0.9833 -0.1818 0.1818 0.9833 -45.4281 108.8108)" class="st13" cx="570.8" cy="302.2" rx="1.7" ry="5"/>
		</g>
		<path class="st13" d="M546.9,256.5c6.1,0,11,5,11,11s-5,11-11,11s-11-5-11-11S540.8,256.5,546.9,256.5z M546.9,254
			c-7.5,0-13.5,6.1-13.5,13.5s6.1,13.5,13.5,13.5c7.5,0,13.5-6.1,13.5-13.5C560.5,260.1,554.4,254,546.9,254L546.9,254z"/>
		<rect x="545.7" y="239.3" class="st13" width="2.5" height="16.1"/>
		<g>
			<polygon class="st14" points="483.8,281.3 483.8,291.7 514.3,271.3 			"/>
			<polygon class="st13" points="475.4,274.8 483.8,281.3 514.3,271.3 486.6,284.2 495.4,291.7 517.7,270 			"/>
			<polygon class="st15" points="486.6,284.2 483.8,291.7 490.3,287.4 			"/>
		</g>
		<g>
			<polygon class="st9" points="550.4,282.9 551.2,277.7 541.9,276.8 540.6,281.2 541.2,288.9 540,297.1 546,299.8 546.8,290.1 			
				"/>
			<g>
				<path class="st9" d="M548.3,280.2c-0.2,0.6,0.2,1.3,0.8,1.5s1.3-0.2,1.5-0.8l1.4-4.7c0.2-0.6-0.2-1.3-0.8-1.5
					c-0.6-0.2-1.3,0.2-1.5,0.8L548.3,280.2z"/>
				<path class="st9" d="M545.7,280.6c-0.2,0.6,0.2,1.3,0.8,1.5s1.3-0.2,1.5-0.8l1.4-4.7c0.2-0.6-0.2-1.3-0.8-1.5s-1.3,0.2-1.5,0.8
					L545.7,280.6z"/>
				<path class="st9" d="M543.2,280.9c-0.2,0.6,0.2,1.3,0.8,1.5c0.6,0.2,1.3-0.2,1.5-0.8l1.4-4.7c0.2-0.6-0.2-1.3-0.8-1.5
					c-0.6-0.2-1.3,0.2-1.5,0.8L543.2,280.9z"/>
				<path class="st9" d="M540.6,281.3c-0.2,0.6,0.2,1.3,0.8,1.5c0.6,0.2,1.3-0.2,1.5-0.8l1.4-4.7c0.2-0.6-0.2-1.3-0.8-1.5
					c-0.6-0.2-1.3,0.2-1.5,0.8L540.6,281.3z"/>
			</g>
			<path class="st9" d="M546.8,290.1l4.5-4.1c0.3-0.2,0.5-0.5,0.6-0.9l2.9-6.5c0,0-0.9-0.9-2.3,0.7l-2.2,3.5c0,0-2.7-1.2-5.5,3.3
				L546.8,290.1z"/>
			<polygon class="st9" points="547.5,289.5 541.2,289.5 533.6,325.2 545.9,326.5 			"/>
		</g>
		<polygon class="st13" points="604.1,318.3 602.4,313.8 583.2,320.2 580.3,328.9 		"/>
		<polygon class="st13" points="583.2,320.2 578.6,324.7 579.6,327.3 581.8,328.4 		"/>
		<path class="st7" d="M614.9,390.7c0,0-0.9,4.4,1.5,8.9c0.6,1.1,0.6,2.4,0,3.5c-0.6,1.1-1.8,1.8-3,1.8c-2.7,0.1-5.7,0-8.1-0.7
			c-2.2-0.6-4.6-0.7-6.8-0.2c-4.7,1-9.5,2.3-13.7,4.7c-1.7,1-5.4,5.8-7.4,5.1c-2.7-1-0.1-9.6,0.3-11.6c1.3-6.5,3.3-14.5,4.8-21.1
			c0.1-0.5,0.2-1,0.3-1.5c0.7-3,1.2-5.7,1.5-7.6c0.8-5.9-2.2-10.4-4.3-15.4c-0.8-1.9-1.5-4-1.7-6.2c-0.2-1.8-0.4-3.6-0.5-5.5
			c-0.3-5.5,0.1-11.2,2.8-16.1c1-1.8,2.5-3.3,4.2-4.6c3.1-2.2,6.9-3.7,10.3-4.8c5.2-1.6,11-1.7,15.7,1.2c3.4,2.1,5.9,5.9,7.5,9.6
			c0,0,4.8,10.1,2.7,25.5C619.3,366.9,615.6,380.6,614.9,390.7z"/>
		<g>
			<path class="st9" d="M545.3,362.6l-26.4-12.5l-2-5.7l-2-2.3c-0.6-0.7-4.4,1.6-4.4,1.7s0,0.1-0.1,0.2c-1.2,1-4.2,1.9-5.4,2.3
				c-1.5,0.5-6.2-0.1-7.7-0.3c-0.4-0.1-0.7,0.1-0.9,0.4c-0.2,0.3-0.3,0.7,0.1,1.1c-0.1,0.3-0.4,1.2,0.8,1.6c-0.1,0.4,0,1,0.9,1.3
				c0.2,0.5,0.8,1.4,2.3,1.7c1,0.4,2.2,0.7,4,0.7c3.6,0.1,6.3,0,8-0.3l26.5,20.3L545.3,362.6z"/>
			<path class="st13" d="M516.1,354.3l-0.5-1.6l-9.6-20.1c-0.1-0.3-0.5-0.5-0.8-0.5h-10.7l0.6-0.9c0,0-1.6,0-1.5,1.8
				c0,0.2,0.1,0.4,0.1,0.6l9.3,21.9c0.1,0.3,0.5,0.6,0.8,0.6h11.3c1.5,0,1.5-1.7,1.5-1.7L516.1,354.3z"/>
			<path class="st15" d="M503.7,354.5c0.1,0.3,0.5,0.6,0.8,0.6h11.3c0.3,0,0.6-0.2,0.8-0.4c0.2-0.3,0.2-0.6,0.1-0.9l-10-22.1
				c-0.1-0.3-0.5-0.5-0.8-0.5h-10.7c-0.3,0-0.6,0.2-0.8,0.4s-0.2,0.6-0.1,0.9L503.7,354.5z"/>
			<path class="st13" d="M515,353c0.1,0,0.1,0,0.2-0.1s0-0.1,0-0.2l-8.6-19.1c0-0.1-0.1-0.1-0.2-0.1h-10.3c-0.1,0-0.1,0-0.2,0.1
				c0,0.1,0,0.1,0,0.2l8.1,19.1c0,0.1,0.1,0.1,0.2,0.1H515z"/>
			<path class="st9" d="M513.7,346.8c-2.8-0.4-3.2-3.1-3.2-3.1c0-0.1,0-0.1-0.1-0.2c-1.4-0.9-2.3-1.5-4.1-2.3
				c-0.3-0.1-0.6-0.3-0.8-0.6c-0.2-0.2-0.4-0.4-0.5-0.7c-0.1-0.3-0.2-0.6,0-0.9c0.1-0.3,0.4-0.6,1-0.4l4.7,1.8l1.8,0.3
				c0.9,0.1,1.7,0.6,2.2,1.3L513.7,346.8z"/>
			<path class="st13" d="M509.5,354c0,0.2,0.2,0.4,0.4,0.4h1.5c0.2,0,0.4-0.2,0.4-0.4s-0.2-0.4-0.4-0.4h-1.5
				C509.7,353.6,509.5,353.7,509.5,354z"/>
		</g>
		<path class="st16" d="M601.3,351.9l-15.3,3.6c0,0,4.5,16.7-3.8,25.4c0.1-0.5,0.2-1,0.3-1.5c0.7-3,1.2-5.7,1.5-7.6
			c0.8-5.9-2.2-10.4-4.3-15.4c-0.8-1.9-1.5-4-1.7-6.2c-0.2-1.8-0.4-3.6-0.5-5.5l34-9.8C611.6,334.9,616.3,346.3,601.3,351.9z"/>
		<g>
			<path class="st7" d="M599.5,347.2l-57.7,5.5c-3.5,0.2-6.8-1.2-9.1-3.8c-2.3-2.6-3.2-6.1-2.6-9.5l3.9-16l11.9,0.9v11.2h3.1
				l10.7-1.4c2.1-0.2,4.1-0.9,6-1.8c6.8-3.7,24.1-9.4,32.3-8.7h6c1.1,0,2.2,0.2,3.1,0.4c1.3,0.4,2.5,1.1,3.4,1.9
				c1.7,1.6,2.7,3.9,2.8,6.6C614.2,347.8,599.5,347.2,599.5,347.2z"/>
		</g>
		<polygon class="st10" points="533.4,318.4 531.4,326.6 547,328.3 547.2,320.8 		"/>
		<polygon class="st10" points="544.2,360.3 536.4,372.6 544.8,378.9 551,363.3 		"/>
		<g>
			<path class="st13" d="M451.3,471.9c-0.3,0-0.6-0.1-0.8-0.3c-0.2-0.2-0.3-0.5-0.3-0.8s0.1-0.6,0.3-0.8c0.4-0.4,1.2-0.4,1.7,0
				c0.2,0.2,0.3,0.5,0.3,0.8c0,0.3-0.1,0.6-0.3,0.8S451.6,471.9,451.3,471.9z"/>
			<path class="st13" d="M528.9,505.9c-0.6,0-1.1-0.6-1.1-1.2l0,0c0-0.6,0.6-1.1,1.2-1.1l0,0c0.6,0,1.1,0.6,1.1,1.2l0,0
				C530.1,505.4,529.6,505.9,528.9,505.9L528.9,505.9C529,505.9,528.9,505.9,528.9,505.9z M534.5,504.5c-0.1-0.6,0.3-1.2,1-1.3l0,0
				c0,0,0,0,0,0l0,0c0.6-0.1,1.2,0.3,1.4,1l0,0c0.1,0.6-0.3,1.2-1,1.4l0,0c-0.1,0-0.1,0-0.2,0l0,0
				C535.1,505.5,534.6,505.1,534.5,504.5z M522,504.8c-0.6-0.2-1-0.8-0.8-1.4l0,0c0.2-0.6,0.8-1,1.4-0.8l0,0c0.6,0.2,1,0.8,0.8,1.4
				l0,0c-0.1,0.5-0.6,0.9-1.1,0.9l0,0C522.2,504.8,522.1,504.8,522,504.8z M541.1,502.9c-0.2-0.6,0.1-1.3,0.7-1.5l0,0
				c0.6-0.2,1.3,0.1,1.5,0.7l0,0c0.2,0.6-0.1,1.3-0.7,1.5l0,0c-0.1,0.1-0.3,0.1-0.4,0.1l0,0C541.7,503.7,541.3,503.4,541.1,502.9z
				 M515.5,502.3c-0.6-0.3-0.8-1-0.5-1.6l0,0c0.3-0.6,1-0.8,1.6-0.5l0,0c0.6,0.3,0.8,1,0.5,1.6l0,0c-0.2,0.4-0.6,0.6-1,0.6l0,0
				C515.9,502.4,515.7,502.4,515.5,502.3z M547.2,500c-0.4-0.5-0.2-1.3,0.3-1.6l0,0c0.5-0.4,1.3-0.2,1.6,0.3l0,0
				c0.4,0.5,0.2,1.3-0.3,1.6l0,0c-0.2,0.1-0.4,0.2-0.6,0.2l0,0C547.8,500.5,547.4,500.4,547.2,500z M509.6,498.5
				c-0.5-0.4-0.6-1.1-0.2-1.6l0,0c0.4-0.5,1.1-0.6,1.6-0.2l0,0c0.5,0.4,0.6,1.1,0.2,1.6l0,0c-0.2,0.3-0.6,0.4-0.9,0.4l0,0
				C510.1,498.8,509.9,498.7,509.6,498.5z M552.5,496c-0.5-0.5-0.5-1.2,0-1.7l0,0c0.5-0.5,1.2-0.5,1.7,0l0,0c0.5,0.5,0.5,1.2,0,1.7
				l0,0c-0.2,0.2-0.5,0.3-0.8,0.3l0,0C553.1,496.3,552.8,496.2,552.5,496z M504.6,493.7c-0.4-0.5-0.4-1.2,0.1-1.7l0,0
				c0.5-0.4,1.2-0.4,1.7,0.1l0,0c0,0,0,0,0,0l0,0c0.4,0.5,0.4,1.2-0.1,1.7l0,0c-0.2,0.2-0.5,0.3-0.8,0.3l0,0
				C505.2,494.1,504.9,494,504.6,493.7z M557,490.9c-0.5-0.4-0.7-1.1-0.3-1.6l0,0c0.4-0.5,1.1-0.7,1.6-0.3l0,0
				c0.5,0.4,0.7,1.1,0.3,1.6l0,0c-0.2,0.3-0.6,0.5-1,0.5l0,0C557.5,491.1,557.2,491.1,557,490.9z M500.5,488.3L500.5,488.3
				c-0.4-0.5-0.3-1.2,0.2-1.6l0,0c0.5-0.4,1.2-0.3,1.6,0.2l0,0c0.4,0.5,0.3,1.2-0.2,1.6l0,0c-0.2,0.2-0.5,0.3-0.7,0.3l0,0
				C501,488.8,500.7,488.6,500.5,488.3z M560.5,485.2c-0.6-0.3-0.8-1-0.6-1.6l0,0c0.3-0.6,1-0.9,1.6-0.6l0,0c0.6,0.3,0.8,1,0.6,1.6
				l0,0c-0.2,0.4-0.6,0.7-1.1,0.7l0,0C560.9,485.3,560.7,485.2,560.5,485.2z M496.2,483.2c-0.4-0.5-0.4-1.2,0.1-1.7l0,0
				c0.5-0.4,1.2-0.4,1.7,0.1l0,0c0.4,0.5,0.4,1.2-0.1,1.7l0,0c-0.2,0.2-0.5,0.3-0.8,0.3l0,0C496.7,483.6,496.4,483.5,496.2,483.2z
				 M563,478.9c-0.6-0.2-1-0.8-0.8-1.5l0,0c0.2-0.6,0.8-1,1.5-0.8l0,0c0.6,0.2,1,0.8,0.8,1.5l0,0c-0.2,0.5-0.6,0.8-1.1,0.8l0,0
				C563.3,478.9,563.2,478.9,563,478.9z M491.6,478.4L491.6,478.4c-0.5-0.5-0.5-1.2,0-1.7l0,0c0.5-0.5,1.2-0.5,1.7,0l0,0
				c0,0,0,0,0,0l0,0c0.5,0.5,0.5,1.2,0,1.7l0,0c-0.2,0.2-0.5,0.3-0.8,0.3l0,0C492.1,478.7,491.8,478.6,491.6,478.4z M486.6,473.9
				L486.6,473.9c-0.5-0.4-0.6-1.1-0.2-1.6l0,0c0.4-0.5,1.1-0.6,1.6-0.2l0,0l0,0l0,0c0.5,0.4,0.6,1.1,0.2,1.6l0,0
				c-0.2,0.3-0.6,0.4-0.9,0.4l0,0C487.1,474.2,486.9,474.1,486.6,473.9z M564.6,472.3c-0.6-0.1-1.1-0.7-1-1.3l0,0
				c0.1-0.6,0.7-1.1,1.3-1l0,0c0.6,0.1,1.1,0.7,1,1.3l0,0c-0.1,0.6-0.6,1-1.2,1l0,0C564.7,472.3,564.7,472.3,564.6,472.3z
				 M481.3,470c-0.5-0.3-0.7-1.1-0.4-1.6l0,0c0.4-0.5,1.1-0.7,1.6-0.4l0,0c0.5,0.3,0.7,1.1,0.4,1.6l0,0c-0.2,0.4-0.6,0.5-1,0.5l0,0
				C481.7,470.2,481.5,470.1,481.3,470z M455.6,467.2c-0.3-0.6-0.2-1.3,0.4-1.6l0,0c0.6-0.3,1.3-0.2,1.6,0.4l0,0
				c0.3,0.6,0.2,1.3-0.4,1.6l0,0c-0.2,0.1-0.4,0.2-0.6,0.2l0,0C456.2,467.7,455.8,467.5,455.6,467.2z M475.6,466.9
				c-0.6-0.3-0.9-0.9-0.6-1.5l0,0c0.3-0.6,0.9-0.9,1.5-0.6l0,0c0.6,0.2,0.9,0.9,0.6,1.5l0,0c-0.2,0.4-0.6,0.7-1.1,0.7l0,0
				C475.9,467,475.7,467,475.6,466.9z M563.7,464.5c-0.1-0.6,0.4-1.2,1.1-1.3l0,0c0.6-0.1,1.2,0.4,1.3,1.1l0,0
				c0.1,0.6-0.4,1.2-1.1,1.3l0,0c0,0-0.1,0-0.1,0l0,0C564.3,465.6,563.8,465.2,563.7,464.5z M461.7,464.3c-0.1-0.6,0.3-1.3,0.9-1.4
				l0,0c0.6-0.1,1.2,0.3,1.4,0.9l0,0c0.1,0.6-0.3,1.2-0.9,1.4l0,0c-0.1,0-0.2,0-0.2,0l0,0C462.3,465.3,461.8,464.9,461.7,464.3z
				 M469.4,465.1c-0.6-0.1-1.1-0.7-1-1.3l0,0c0.1-0.6,0.7-1.1,1.3-1l0,0l0,0l0,0c0.6,0.1,1.1,0.7,1,1.3l0,0c-0.1,0.6-0.6,1-1.2,1
				l0,0C469.5,465.1,469.4,465.1,469.4,465.1z M562.4,458.2L562.4,458.2L562.4,458.2c-0.2-0.6,0.1-1.3,0.7-1.5l0,0
				c0.6-0.2,1.3,0.1,1.5,0.7l0,0c0.2,0.6-0.1,1.3-0.7,1.5l0,0c-0.1,0-0.2,0.1-0.4,0.1l0,0C563.1,459,562.6,458.7,562.4,458.2z
				 M559.6,452.4c-0.4-0.5-0.2-1.3,0.3-1.6l0,0c0.5-0.4,1.3-0.2,1.6,0.3l0,0c0.4,0.5,0.2,1.3-0.3,1.6l0,0c-0.2,0.1-0.4,0.2-0.6,0.2
				l0,0C560.2,453,559.9,452.8,559.6,452.4z M555.5,447.6c-0.5-0.4-0.5-1.2-0.1-1.7l0,0c0.4-0.5,1.2-0.5,1.7-0.1l0,0
				c0.5,0.4,0.5,1.2,0.1,1.7l0,0c-0.2,0.3-0.6,0.4-0.9,0.4l0,0C556,447.9,555.7,447.8,555.5,447.6z M550.2,443.8
				c-0.6-0.3-0.8-1-0.4-1.6l0,0c0.3-0.6,1-0.8,1.6-0.4l0,0c0.6,0.3,0.8,1,0.4,1.6l0,0c-0.2,0.4-0.6,0.6-1,0.6l0,0
				C550.6,443.9,550.4,443.9,550.2,443.8z M544.3,441.1c-0.6-0.2-0.9-0.9-0.7-1.5l0,0c0.2-0.6,0.9-0.9,1.5-0.7l0,0
				c0.6,0.2,0.9,0.9,0.7,1.5l0,0c-0.2,0.5-0.6,0.8-1.1,0.8l0,0C544.5,441.2,544.4,441.1,544.3,441.1z M509.1,441
				c-0.6,0-1.1-0.6-1.1-1.3l0,0c0-0.6,0.6-1.1,1.2-1.1l0,0c0.6,0,1.1,0.6,1.1,1.3l0,0C510.3,440.5,509.8,441,509.1,441L509.1,441
				C509.2,441,509.2,441,509.1,441z M514.8,439.8c-0.1-0.6,0.4-1.2,1-1.3l0,0c0.6-0.1,1.2,0.4,1.3,1l0,0c0.1,0.6-0.4,1.2-1,1.3l0,0
				c-0.1,0-0.1,0-0.2,0l0,0C515.4,440.8,514.9,440.4,514.8,439.8z M502.3,439.8c-0.6-0.2-1-0.8-0.8-1.4l0,0c0.2-0.6,0.8-1,1.4-0.8
				l0,0c0.6,0.2,1,0.8,0.8,1.4l0,0c-0.1,0.5-0.6,0.9-1.1,0.9l0,0C502.5,439.8,502.4,439.8,502.3,439.8z M521.4,438.5
				c-0.2-0.6,0.1-1.3,0.7-1.5l0,0c0.6-0.2,1.3,0.1,1.5,0.7l0,0c0.2,0.6-0.1,1.3-0.7,1.5l0,0c-0.1,0-0.3,0.1-0.4,0.1l0,0
				C522,439.3,521.6,439,521.4,438.5z M537.8,439.1c-0.6-0.2-1-0.9-0.8-1.5l0,0c0.2-0.6,0.9-0.9,1.5-0.7l0,0c0.6,0.2,1,0.9,0.7,1.5
				l0,0c-0.2,0.5-0.6,0.8-1.1,0.8l0,0C538.1,439.1,538,439.1,537.8,439.1z M495.8,437.3L495.8,437.3L495.8,437.3
				c-0.6-0.3-0.8-1-0.5-1.6l0,0c0.3-0.6,1-0.8,1.6-0.5l0,0c0.6,0.3,0.8,1,0.5,1.6l0,0c-0.2,0.4-0.6,0.6-1,0.6l0,0
				C496.1,437.4,495.9,437.3,495.8,437.3z M531.4,436.8c-0.6-0.2-0.9-0.9-0.7-1.5l0,0c0.2-0.6,0.9-0.9,1.5-0.7l0,0
				c0.6,0.2,0.9,0.9,0.7,1.5l0,0c-0.2,0.5-0.6,0.7-1.1,0.7l0,0C531.7,436.8,531.6,436.8,531.4,436.8z M525.2,434
				c-0.6-0.3-0.8-1-0.5-1.6l0,0c0.3-0.6,1-0.8,1.6-0.5l0,0c0.6,0.3,0.8,1,0.5,1.6l0,0c-0.2,0.4-0.6,0.7-1.1,0.7l0,0
				C525.5,434.1,525.3,434.1,525.2,434z M489.9,433.6c-0.5-0.4-0.6-1.1-0.2-1.6l0,0c0.4-0.5,1.1-0.6,1.6-0.2l0,0
				c0.5,0.4,0.6,1.1,0.2,1.6l0,0c-0.2,0.3-0.6,0.5-0.9,0.5l0,0C490.4,433.8,490.1,433.7,489.9,433.6z M533.2,432.2
				c-0.4-0.5-0.4-1.2,0.1-1.7l0,0c0.5-0.4,1.2-0.4,1.7,0.1l0,0c0.4,0.5,0.4,1.2-0.1,1.7l0,0c-0.2,0.2-0.5,0.3-0.8,0.3l0,0
				C533.8,432.6,533.5,432.4,533.2,432.2z M519.1,430.7L519.1,430.7L519.1,430.7c-0.6-0.3-0.7-1.1-0.4-1.6l0,0
				c0.3-0.6,1.1-0.7,1.6-0.4h0c0.5,0.3,0.7,1.1,0.4,1.6l0,0c-0.2,0.4-0.6,0.6-1,0.6l0,0C519.5,430.9,519.3,430.8,519.1,430.7z
				 M484.6,429.1c-0.5-0.4-0.5-1.2,0-1.7l0,0c0.4-0.5,1.2-0.5,1.7,0l0,0c0.5,0.4,0.5,1.2,0,1.7l0,0c-0.2,0.2-0.5,0.4-0.8,0.4l0,0
				C485.2,429.4,484.9,429.3,484.6,429.1z M538,427.4c-0.5-0.4-0.6-1.1-0.2-1.6l0,0c0.4-0.5,1.1-0.6,1.6-0.2l0,0
				c0.5,0.4,0.6,1.1,0.2,1.6l0,0c-0.2,0.3-0.6,0.5-0.9,0.5l0,0C538.5,427.7,538.2,427.6,538,427.4z M513.5,426.6
				c-0.5-0.4-0.6-1.2-0.1-1.7l0,0c0.4-0.5,1.2-0.6,1.7-0.1l0,0c0.5,0.4,0.6,1.2,0.1,1.7l0,0c-0.2,0.3-0.6,0.4-0.9,0.4l0,0
				C514,426.9,513.8,426.8,513.5,426.6z M479.9,424.1c-0.4-0.5-0.3-1.2,0.2-1.7l0,0c0.5-0.4,1.2-0.3,1.6,0.2l0,0
				c0.4,0.5,0.3,1.2-0.1,1.7l0,0c-0.2,0.2-0.5,0.3-0.8,0.3l0,0C480.5,424.5,480.2,424.4,479.9,424.1z M508.7,421.6
				c-0.4-0.5-0.3-1.2,0.2-1.6l0,0c0.5-0.4,1.2-0.3,1.6,0.2l0,0c0.4,0.5,0.3,1.2-0.2,1.6l0,0c-0.2,0.2-0.5,0.2-0.7,0.2l0,0
				C509.3,422.1,508.9,421.9,508.7,421.6z M541.8,421.8c-0.6-0.3-0.8-1-0.5-1.6l0,0c0.3-0.6,1-0.8,1.6-0.5l0,0
				c0.6,0.3,0.8,1,0.5,1.6l0,0l0,0l0,0c-0.2,0.4-0.6,0.6-1,0.6l0,0C542.2,422,542,421.9,541.8,421.8z M475.8,418.6L475.8,418.6
				L475.8,418.6c-0.4-0.5-0.2-1.3,0.3-1.6l0,0c0.5-0.4,1.3-0.2,1.6,0.3l0,0c0.4,0.5,0.2,1.3-0.3,1.6l0,0c-0.2,0.1-0.4,0.2-0.7,0.2
				l0,0C476.4,419.1,476.1,418.9,475.8,418.6z M505.1,415.6c-0.3-0.6,0-1.3,0.6-1.5l0,0c0.6-0.3,1.3,0,1.5,0.6v0
				c0.3,0.6,0,1.3-0.6,1.5l0,0c-0.2,0.1-0.3,0.1-0.5,0.1l0,0C505.7,416.3,505.3,416,505.1,415.6z M544.5,415.7
				c-0.6-0.2-1-0.8-0.8-1.5l0,0c0.2-0.6,0.8-1,1.5-0.8l0,0c0.6,0.2,1,0.8,0.8,1.5l0,0c-0.2,0.5-0.6,0.8-1.1,0.8l0,0
				C544.7,415.7,544.6,415.7,544.5,415.7z M472.3,412.7c-0.3-0.6-0.1-1.3,0.5-1.6l0,0c0.6-0.3,1.3-0.1,1.6,0.5l0,0
				c0.3,0.6,0.1,1.3-0.5,1.6l0,0c-0.2,0.1-0.4,0.1-0.6,0.1l0,0C472.9,413.3,472.5,413.1,472.3,412.7z M503.3,408.8
				c-0.1-0.6,0.4-1.2,1-1.3l0,0c0.6-0.1,1.2,0.4,1.3,1l0,0c0.1,0.6-0.4,1.2-1,1.3l0,0c-0.1,0-0.1,0-0.2,0l0,0
				C503.9,409.8,503.3,409.4,503.3,408.8z M546,409.1c-0.6-0.1-1.1-0.6-1-1.3l0,0c0.1-0.6,0.6-1.1,1.3-1l0,0c0.6,0.1,1.1,0.6,1,1.3
				l0,0c-0.1,0.6-0.6,1.1-1.2,1.1l0,0C546.1,409.1,546,409.1,546,409.1z M469.4,406.5c-0.3-0.6,0-1.3,0.6-1.5l0,0
				c0.6-0.3,1.3,0,1.5,0.6l0,0c0.3,0.6,0,1.3-0.6,1.5l0,0c-0.1,0.1-0.3,0.1-0.5,0.1l0,0C470,407.2,469.6,407,469.4,406.5z
				 M504.2,403.1c-0.6-0.1-1.1-0.6-1.1-1.3l0,0c0.1-0.6,0.6-1.1,1.3-1.1l0,0c0.6,0.1,1.1,0.6,1.1,1.3l0,0c-0.1,0.6-0.6,1.1-1.2,1.1
				l0,0C504.3,403.1,504.3,403.1,504.2,403.1z M545,401.3c-0.1-0.6,0.4-1.2,1-1.3l0,0c0.6-0.1,1.2,0.4,1.3,1l0,0
				c0.1,0.6-0.4,1.2-1,1.3l0,0c0,0-0.1,0-0.1,0l0,0C545.5,402.3,545,401.9,545,401.3z M466.9,400.1c-0.2-0.6,0.1-1.3,0.7-1.5l0,0
				c0.6-0.2,1.3,0.1,1.5,0.7l0,0c0.2,0.6-0.1,1.3-0.7,1.5l0,0c-0.1,0-0.3,0.1-0.4,0.1l0,0C467.5,400.9,467.1,400.6,466.9,400.1z
				 M505.3,396.4c-0.6-0.2-1-0.9-0.8-1.5l0,0c0.2-0.6,0.9-1,1.5-0.8l0,0c0.6,0.2,1,0.9,0.8,1.5l0,0c-0.2,0.5-0.6,0.8-1.1,0.8l0,0
				C505.6,396.5,505.4,396.5,505.3,396.4z M543.6,395c-0.2-0.6,0.1-1.3,0.7-1.5l0,0c0.6-0.2,1.3,0.1,1.5,0.7l0,0
				c0.2,0.6-0.1,1.3-0.7,1.5l0,0c-0.1,0-0.3,0.1-0.4,0.1l0,0C544.2,395.8,543.8,395.5,543.6,395z M465,393.6
				C465,393.6,465,393.6,465,393.6L465,393.6c-0.2-0.6,0.2-1.3,0.8-1.4l0,0c0.6-0.2,1.3,0.2,1.4,0.8v0c0.2,0.6-0.2,1.3-0.8,1.4l0,0
				c-0.1,0-0.2,0-0.3,0l0,0C465.6,394.5,465.1,394.1,465,393.6z M507.8,390.2c-0.6-0.3-0.7-1.1-0.4-1.6l0,0c0,0,0,0,0,0l0,0
				c0.3-0.6,1.1-0.7,1.6-0.4l0,0c0.6,0.3,0.7,1.1,0.4,1.6l0,0c-0.2,0.4-0.6,0.6-1,0.6l0,0C508.2,390.3,508,390.3,507.8,390.2z
				 M540.8,389.2c-0.4-0.5-0.2-1.3,0.3-1.6l0,0c0.5-0.4,1.3-0.2,1.6,0.3l0,0c0.4,0.5,0.2,1.3-0.3,1.6l0,0c-0.2,0.1-0.4,0.2-0.6,0.2
				l0,0C541.4,389.7,541,389.5,540.8,389.2z M463.4,387c-0.1-0.6,0.3-1.3,0.9-1.4l0,0c0.6-0.1,1.3,0.3,1.4,0.9l0,0
				c0.1,0.6-0.3,1.2-0.9,1.4l0,0c-0.1,0-0.2,0-0.2,0l0,0C464,387.9,463.5,387.5,463.4,387z M511.8,384.7c-0.4-0.5-0.4-1.2,0.1-1.7
				l0,0c0.5-0.4,1.2-0.4,1.7,0.1l0,0c0.4,0.5,0.4,1.2-0.1,1.7l0,0c-0.2,0.2-0.5,0.3-0.8,0.3l0,0C512.4,385.1,512,385,511.8,384.7z
				 M536.5,384.4c-0.5-0.4-0.6-1.2-0.1-1.6l0,0c0.4-0.5,1.2-0.6,1.6-0.1l0,0c0.5,0.4,0.6,1.2,0.1,1.6l0,0c-0.2,0.3-0.6,0.4-0.9,0.4
				l0,0C537,384.7,536.8,384.6,536.5,384.4z M517.2,380.8c-0.2-0.6,0-1.3,0.6-1.5l0,0c0.6-0.2,1.3,0,1.5,0.6l0,0
				c0.2,0.6,0,1.3-0.6,1.5l0,0c-0.1,0.1-0.3,0.1-0.4,0.1l0,0C517.9,381.5,517.4,381.2,517.2,380.8z M531.1,381.2
				c-0.6-0.2-0.9-0.9-0.7-1.5l0,0c0.2-0.6,0.9-0.9,1.5-0.7l0,0c0.6,0.2,0.9,0.9,0.7,1.5l0,0c-0.2,0.5-0.6,0.8-1.1,0.8l0,0
				C531.4,381.3,531.2,381.2,531.1,381.2z M462.3,380.2c-0.1-0.6,0.4-1.2,1-1.3l0,0c0.6-0.1,1.2,0.4,1.3,1l0,0
				c0.1,0.6-0.4,1.2-1,1.3l0,0c-0.1,0-0.1,0-0.1,0l0,0C462.9,381.2,462.4,380.8,462.3,380.2z M523.7,379c0-0.6,0.5-1.2,1.1-1.2l0,0
				c0.6,0,1.2,0.5,1.2,1.1l0,0c0,0.6-0.5,1.2-1.1,1.2v0c0,0,0,0,0,0l0,0C524.3,380.2,523.7,379.7,523.7,379z M461.7,373.4
				c0-0.6,0.5-1.2,1.1-1.2l0,0c0.6,0,1.2,0.5,1.2,1.1l0,0c0,0.6-0.5,1.2-1.1,1.2l0,0c0,0,0,0-0.1,0l0,0
				C462.3,374.5,461.8,374,461.7,373.4z M462.8,367.8c-0.6,0-1.2-0.6-1.1-1.2l0,0c0-0.6,0.6-1.2,1.2-1.1l0,0c0.6,0,1.2,0.6,1.1,1.2
				l0,0C464,367.3,463.5,367.8,462.8,367.8L462.8,367.8C462.8,367.8,462.8,367.8,462.8,367.8z M463.1,361c-0.6-0.1-1.1-0.6-1.1-1.3
				l0,0l0,0l0,0c0.1-0.6,0.6-1.1,1.3-1.1l0,0c0.6,0.1,1.1,0.6,1.1,1.3l0,0c-0.1,0.6-0.6,1.1-1.2,1.1l0,0
				C463.2,361,463.2,361,463.1,361z M463.8,354.3c-0.6-0.1-1.1-0.7-1-1.3l0,0c0.1-0.6,0.7-1.1,1.3-1l0,0c0.6,0.1,1.1,0.7,1,1.3l0,0
				c-0.1,0.6-0.6,1-1.2,1l0,0C463.9,354.3,463.9,354.3,463.8,354.3z M464.8,347.6c-0.6-0.1-1.1-0.7-1-1.3l0,0c0.1-0.6,0.7-1.1,1.3-1
				l0,0c0.6,0.1,1.1,0.7,1,1.3l0,0c-0.1,0.6-0.6,1-1.2,1l0,0C464.9,347.7,464.8,347.6,464.8,347.6z M465.9,341
				c-0.6-0.1-1-0.7-0.9-1.4l0,0c0.1-0.6,0.7-1,1.4-0.9l0,0c0.6,0.1,1,0.7,0.9,1.4l0,0c-0.1,0.6-0.6,0.9-1.1,0.9l0,0
				C466.1,341,466,341,465.9,341z M467.3,334.4c-0.6-0.1-1-0.8-0.9-1.4l0,0c0.1-0.6,0.8-1,1.4-0.9l0,0c0.6,0.1,1,0.8,0.9,1.4l0,0
				c-0.1,0.5-0.6,0.9-1.1,0.9l0,0C467.5,334.4,467.4,334.4,467.3,334.4z M468.9,327.8c-0.6-0.2-1-0.8-0.8-1.4l0,0l0,0l0,0
				c0.2-0.6,0.8-1,1.4-0.8l0,0c0.6,0.2,1,0.8,0.8,1.4l0,0c-0.1,0.5-0.6,0.9-1.1,0.9l0,0C469.1,327.9,469,327.9,468.9,327.8z
				 M470.8,321.3c-0.6-0.2-1-0.9-0.7-1.5l0,0c0.2-0.6,0.9-1,1.5-0.8l0,0c0.6,0.2,1,0.9,0.8,1.5l0,0c-0.2,0.5-0.6,0.8-1.1,0.8l0,0
				C471,321.4,470.9,321.4,470.8,321.3z M473,315c-0.6-0.2-0.9-0.9-0.7-1.5l0,0c0.2-0.6,0.9-0.9,1.5-0.7l0,0
				c0.6,0.2,0.9,0.9,0.7,1.5l0,0c-0.2,0.5-0.6,0.8-1.1,0.8l0,0C473.3,315.1,473.1,315,473,315z M475.6,308.7c-0.6-0.3-0.8-1-0.6-1.6
				l0,0l0,0l0,0c0.3-0.6,1-0.8,1.6-0.6l0,0c0.6,0.3,0.9,1,0.6,1.6l0,0c-0.2,0.4-0.6,0.7-1.1,0.7l0,0
				C475.9,308.8,475.7,308.8,475.6,308.7z M478.5,302.7c-0.6-0.3-0.8-1-0.5-1.6l0,0c0.3-0.6,1-0.8,1.6-0.5l0,0
				c0.6,0.3,0.8,1,0.5,1.6l0,0c-0.2,0.4-0.6,0.6-1,0.6l0,0C478.9,302.8,478.7,302.8,478.5,302.7z"/>
			<path class="st13" d="M482.6,297c-0.3,0-0.6-0.1-0.8-0.3c-0.2-0.2-0.3-0.5-0.3-0.8s0.1-0.6,0.3-0.8c0.4-0.4,1.2-0.4,1.7,0
				c0.2,0.2,0.3,0.5,0.3,0.8s-0.1,0.6-0.3,0.8C483.2,296.8,482.9,297,482.6,297z"/>
		</g>
		<path class="st16" d="M594,337.8c-15.2,0.3-19-7.9-24.4-0.3c-4.7,6.6-24.1,4.7-23.7-2l13.9-1.4c2.1-0.2,4.1-0.9,6-1.8
			c6.8-3.7,24.1-9.4,32.3-8.7h6c1.1,0,2.2,0.2,3.1,0.4C607.2,327.9,606.1,337.6,594,337.8z"/>
		<path class="st17" d="M595.4,304c-0.1,0.1-0.1,0.1-0.1,0.1l-2.2-0.5c-2.3-0.6-3.7-2.7-3.5-5c0.1-1.2-0.3-2.5-2-3.2
			c-0.7-0.3-1.5-0.3-2.2,0.1c-0.6,0.3-1.2,0.8-1.3,1.8c-0.1,0.8-0.3,1.6-0.5,2.4l-1.8,4.9l1.6,4.7c0,0,8.4-0.7,11.2,7.1l3.9-1.3
			L595.4,304z"/>
		<path class="st11" d="M570.8,310.8c1,0.9,1.8,0.4,2.1,0.2c2.6-1.5,4.9-1.4,6.3-1.1c0.5,0.1,1.1,0,1.5-0.4c0.4-0.4,0.7-0.9,0.6-1.4
			c0-0.7-0.2-1.4-0.5-2.1l-1.4-5.6l-1.3-5.4l5.4,2.9c0.8,1.9-2.9,5.7-0.8,7.6c0,0,0,0,0,0c1.2,1.1,1.9,2.1,2.2,2.7
			c0.2,0.4,0.3,0.7,0.3,0.7c0.9,3.3-0.5,6.1-2.6,8.2c-1,1-2,1.8-3.1,2.5c0.1,0.4,0.1,0.8-0.1,1.3c-0.8,2.7-4,2.6-4,2.6
			C568.2,323.2,570.8,310.8,570.8,310.8z"/>
		<path class="st13" d="M568,303.6c-0.2,0-0.4-0.2-0.5-0.4c-0.1-0.3,0.1-0.6,0.4-0.6l16-4.4c0.3-0.1,0.6,0.1,0.7,0.4
			c0.1,0.3-0.1,0.6-0.4,0.6l-16,4.4C568.1,303.6,568,303.6,568,303.6z"/>
	</g>
	<g>
		<path class="st1" d="M709,381.4c0,4.7,7.3,5.1,8.2,0C717.9,376.3,709,374.8,709,381.4z"/>
		<path class="st1" d="M709.7,301.5c1.7,4.2,8.7,1.5,6.6-2.2C714.3,295.7,707.9,297,709.7,301.5z"/>
		<path class="st1" d="M435.3,431.1c-3.8,4.8,3.1,10,6.4,6.3C444.9,433.7,439.2,426.2,435.3,431.1z"/>
		<path class="st1" d="M532.3,472.1c-0.1,6.5,8.7,4.7,9,0C541.6,467.5,532.4,467.4,532.3,472.1z"/>
		<path class="st1" d="M406.9,382.9c-5.3,7.2,7.3,14.8,11.3,7.6C422.2,383.3,413,374.7,406.9,382.9z"/>
		<path class="st1" d="M672.9,446.3c3,2.8,12.5-2.1,7.7-6.7C675.9,435.1,670,443.5,672.9,446.3z"/>
		<path class="st1" d="M535.2,276.3c-7.2,1.8-1.8,13.5,3.6,10.3C544.2,283.5,542.1,274.5,535.2,276.3z"/>
		<polygon class="st1" points="458.2,467.9 464.6,468.6 458.2,469.3 457.5,475.6 456.8,469.3 450.5,468.6 456.8,467.9 457.5,461.5 
					"/>
		<polygon class="st1" points="362.4,266.8 368.7,267.5 362.4,268.2 361.7,274.6 361,268.2 354.6,267.5 361,266.8 361.7,260.5 		"/>
		<polygon class="st1" points="713.8,520.4 720.1,521.1 713.8,521.8 713.1,528.1 712.4,521.8 706,521.1 712.4,520.4 713.1,514 		"/>
		<polygon class="st1" points="691.8,272.4 703.9,273.7 691.8,275 690.5,287.1 689.2,275 677.1,273.7 689.2,272.4 690.5,260.3 		"/>
	</g>
</g>
<g id="Layer_4">
</g>
<g id="Layer_5">
</g>
</svg>
